<svg width="1284" height="2778" viewBox="0 0 1284 2778" fill="none" xmlns="http://www.w3.org/2000/svg">
    <rect width="1284" height="2778" fill="#ffffff" />
    <g transform="translate(342, 1100) scale(3.5)">
        <path d="M30 15 C 30 15, 30 10, 45 10 H 125 C 145 10, 150 20, 150 35 V 55 C 150 65, 145 70, 135 70 H 70 V 55 H 115 V 35 H 65 C 50 35, 50 45, 50 55 V 110 H 30 Z" fill="#003366" />
        <path d="M55 80 H 135 C 145 80, 150 85, 150 95 V 115 H 55 Z" fill="#003366" />
        <rect x="115" y="35" width="20" height="8" rx="4" fill="#ffffff" />
    </g>
    <text x="642" y="1580" font-family="sans-serif" font-weight="900" font-size="120" fill="#003366" text-anchor="middle" letter-spacing="-5">PayBills</text>
</svg>